<svg xmlns="http://www.w3.org/2000/svg" width="21" height="21" viewBox="0 0 21 21">
    <path id="Path_3" data-name="Path 3" d="M1040.176,224.139l-3.955-3.955a8.82,8.82,0,0,0,2.257-5.9v-.423a8.865,8.865,0,0,0-8.866-8.866h-.422a8.865,8.865,0,0,0-8.866,8.866v.423a8.865,8.865,0,0,0,8.866,8.865h.422a8.821,8.821,0,0,0,5.9-2.257l3.955,3.955a.5.5,0,0,0,.713,0A.5.5,0,0,0,1040.176,224.139Zm-10.564-1.994h-.422a7.866,7.866,0,0,1-7.857-7.856v-.423a7.866,7.866,0,0,1,7.857-7.857h.422a7.866,7.866,0,0,1,7.857,7.857v.423A7.865,7.865,0,0,1,1029.612,222.145Z" transform="translate(-1019.824 -204.5)" fill="#fff" stroke="#fff" stroke-miterlimit="10" stroke-width="1"/>
</svg>
